<svg width="17" height="17" viewBox="0 0 17 17" fill="none" xmlns="http://www.w3.org/2000/svg">
<path d="M15.7812 14.4225L12.6562 11.2975C12.5 11.1725 12.3125 11.0788 12.125 11.0788H11.625C12.4688 9.98505 13 8.61005 13 7.0788C13 3.5163 10.0625 0.578796 6.5 0.578796C2.90625 0.578796 0 3.5163 0 7.0788C0 10.6725 2.90625 13.5788 6.5 13.5788C8 13.5788 9.375 13.0788 10.5 12.2038V12.735C10.5 12.9225 10.5625 13.11 10.7188 13.2663L13.8125 16.36C14.125 16.6725 14.5938 16.6725 14.875 16.36L15.75 15.485C16.0625 15.2038 16.0625 14.735 15.7812 14.4225ZM6.5 11.0788C4.28125 11.0788 2.5 9.29755 2.5 7.0788C2.5 4.8913 4.28125 3.0788 6.5 3.0788C8.6875 3.0788 10.5 4.8913 10.5 7.0788C10.5 9.29755 8.6875 11.0788 6.5 11.0788Z" fill="#959EAD"/>
</svg>
