<svg width="24" height="25" viewBox="0 0 24 25" fill="none" xmlns="http://www.w3.org/2000/svg">
<g clip-path="url(#clip0_3_1592)">
<path d="M14.9498 9.42486C15.7723 10.2473 17.1105 10.2473 17.933 9.42486C18.3314 9.02642 18.5508 8.49673 18.5508 7.93329C18.5508 7.36986 18.3314 6.84017 17.933 6.44178C17.5218 6.03055 16.9816 5.82495 16.4414 5.82495C15.9013 5.82495 15.3611 6.03055 14.9499 6.44178C14.5515 6.84017 14.332 7.36986 14.332 7.93329C14.332 8.49673 14.5515 9.02647 14.9498 9.42486Z" fill="#183B56"/>
<path d="M6.10492 6.85477L4.02565 7.01541C3.44708 7.06012 2.93179 7.36336 2.61182 7.84734L0.213854 11.4741C-0.0288162 11.8411 -0.067394 12.3005 0.110589 12.7028C0.288619 13.1052 0.654475 13.3856 1.08924 13.453L2.99305 13.7478C3.43841 11.3844 4.50452 9.0268 6.10492 6.85477Z" fill="#FFD050"/>
<path d="M10.625 21.3797L10.9199 23.2835C10.9872 23.7182 11.2677 24.0841 11.67 24.2621C11.8374 24.3361 12.0146 24.3727 12.1908 24.3727C12.4385 24.3727 12.6844 24.3006 12.8987 24.1588L16.5256 21.7609C17.0096 21.4409 17.3128 20.9255 17.3575 20.3471L17.5181 18.2678C15.346 19.8682 12.9885 20.9343 10.625 21.3797Z" fill="#FFD050"/>
<path d="M9.90948 20.0606C9.97557 20.0606 10.042 20.0552 10.1084 20.0441C11.0985 19.8786 12.0529 19.5997 12.9633 19.2346L5.13853 11.4098C4.77347 12.3202 4.49456 13.2745 4.329 14.2648C4.26375 14.6551 4.39467 15.0527 4.67447 15.3326L9.04056 19.6987C9.27287 19.9309 9.58642 20.0606 9.90948 20.0606Z" fill="#FFD050"/>
<path d="M22.0865 11.0145C24.0013 7.31258 24.0722 3.40061 23.9721 1.56594C23.9379 0.937306 23.4367 0.436123 22.808 0.401857C22.5093 0.385545 22.1552 0.373779 21.7562 0.373779C19.7047 0.373779 16.4586 0.684511 13.3595 2.28748C10.8966 3.5614 7.66708 6.36642 5.76172 10.0527C5.78422 10.0703 5.8062 10.089 5.82692 10.1097L14.2644 18.5471C14.2851 18.5678 14.3037 18.5898 14.3213 18.6123C18.0076 16.7069 20.8126 13.4773 22.0865 11.0145ZM13.9547 5.44749C15.3254 4.07683 17.5557 4.07669 18.9265 5.44749C19.5905 6.11147 19.9562 6.99435 19.9562 7.93339C19.9562 8.87243 19.5905 9.75532 18.9265 10.4193C18.2412 11.1046 17.3407 11.4473 16.4406 11.4473C15.5402 11.4474 14.6402 11.1047 13.9547 10.4193C13.2907 9.75532 12.925 8.87243 12.925 7.93339C12.925 6.99435 13.2907 6.11147 13.9547 5.44749Z" fill="#183B56"/>
<path d="M0.716821 20.1518C0.896774 20.1518 1.07673 20.0832 1.21398 19.9459L3.50959 17.6503C3.78418 17.3757 3.78418 16.9305 3.50959 16.6559C3.23504 16.3813 2.78982 16.3813 2.51523 16.6559L0.219617 18.9515C-0.0549766 19.2261 -0.0549766 19.6713 0.219617 19.9459C0.356914 20.0832 0.536867 20.1518 0.716821 20.1518Z" fill="#FFD050"/>
<path d="M5.61382 18.7591C5.33927 18.4845 4.89405 18.4845 4.61946 18.7591L0.205945 23.1726C-0.0686484 23.4472 -0.0686484 23.8924 0.205945 24.167C0.343242 24.3043 0.523195 24.3729 0.703148 24.3729C0.883102 24.3729 1.06305 24.3043 1.2003 24.1669L5.61377 19.7534C5.88841 19.4788 5.88841 19.0337 5.61382 18.7591Z" fill="#FFD050"/>
<path d="M6.72221 20.8644L4.42665 23.16C4.15205 23.4346 4.15205 23.8798 4.42665 24.1544C4.56395 24.2917 4.7439 24.3603 4.9238 24.3603C5.10371 24.3603 5.28371 24.2917 5.42096 24.1544L7.71657 21.8588C7.99116 21.5842 7.99116 21.139 7.71657 20.8644C7.44202 20.5898 6.9968 20.5898 6.72221 20.8644Z" fill="#FFD050"/>
</g>
<defs>
<clipPath id="clip0_3_1592">
<rect width="24" height="24" fill="white" transform="translate(0 0.373779)"/>
</clipPath>
</defs>
</svg>
