<svg width="29" height="26" viewBox="0 0 29 26" fill="none" xmlns="http://www.w3.org/2000/svg">
<g id="Icon ">
<path id="Oval" opacity="0.15" fill-rule="evenodd" clip-rule="evenodd" d="M13.9472 24.8682C21.3885 24.8682 27.4209 19.4956 27.4209 12.8682C27.4209 6.24078 21.3885 0.868195 13.9472 0.868195C6.50588 0.868195 0.473511 6.24078 0.473511 12.8682C0.473511 19.4956 6.50588 24.8682 13.9472 24.8682Z" fill="#36B37E"/>
<path id="Icon" d="M12.1489 16.6924L8.48664 13.4502C8.3843 13.3591 8.33313 13.2419 8.33313 13.0987C8.33313 12.9554 8.3843 12.8383 8.48664 12.7471L9.29804 12.044C9.40038 11.9398 9.5283 11.8877 9.68181 11.8877C9.83532 11.8877 9.97055 11.9398 10.0875 12.044L12.5436 14.2315L17.8068 9.544C17.9238 9.43983 18.059 9.38775 18.2125 9.38775C18.366 9.38775 18.4939 9.43983 18.5963 9.544L19.4077 10.2471C19.51 10.3383 19.5612 10.4555 19.5612 10.5987C19.5612 10.7419 19.51 10.8591 19.4077 10.9502L12.9384 16.6924C12.836 16.7966 12.7045 16.8487 12.5436 16.8487C12.3828 16.8487 12.2512 16.7966 12.1489 16.6924Z" fill="#36B37E"/>
</g>
</svg>
